<svg xmlns="http://www.w3.org/2000/svg" viewBox="0 0 364.48 135.56"><defs><style>.cls-1{fill:#e7453b;}.cls-2{fill:#fff;}</style></defs><g id="Layer_2" data-name="Layer 2"><g id="Layer_1-2" data-name="Layer 1"><polygon class="cls-1" points="55.66 27.96 42.56 50.48 26.29 22.53 39.4 0.01 55.66 27.96"/><polygon class="cls-1" points="201.16 135.56 43.7 135.56 56.64 113.35 87.66 60.06 100.77 82.59 82.87 113.35 188.22 113.35 201.16 135.56"/><polygon class="cls-1" points="135.54 22.84 113.88 60.05 100.77 37.52 122.43 0.31 135.54 22.84"/><polygon class="cls-2" points="144.88 113.35 118.66 113.35 100.77 82.59 87.66 60.06 87.66 60.05 78.9 45.03 26.21 135.56 0 135.56 65.81 22.52 78.92 0 92.02 22.51 100.77 37.52 113.88 60.05 113.88 60.06 144.88 113.35"/><path class="cls-2" d="M177,66H159.4l-2.81,8.31h-12l17-47h13.28l17,47.05H179.78Zm-3-8.85L168.18,40l-5.76,17.22Z"/><path class="cls-2" d="M239.17,74.35H227.71l-19.17-29v29H197.07v-47h11.47l19.17,29.16V27.3h11.46Z"/><path class="cls-2" d="M258.94,27.3V74.35H247.48v-47Z"/><path class="cls-2" d="M320.55,27.3V74.35H309.09V46.13L298.56,74.35h-9.25L278.72,46.07V74.35H267.26v-47H280.8L294,59.88,307.07,27.3Z"/><path class="cls-2" d="M340.26,36.48V46h15.35v8.85H340.26V65.17h17.36v9.18H328.79v-47h28.83v9.18Z"/><path class="cls-1" d="M284.91,88.5l-12.27,47.06H258.77l-7.51-31-7.77,31H229.61L217.68,88.5h12.26l6.78,34.26,8.37-34.26H257.7l8,34.26,6.84-34.26Z"/><path class="cls-1" d="M302.14,97.69v9.52h15.35v8.84H302.14v10.33H319.5v9.18H290.68V88.5H319.5v9.19Z"/><path class="cls-1" d="M362,115.48a12.35,12.35,0,0,1-1.64,16.63q-4.12,3.45-11.5,3.45H326.94V88.5h21.18q7.17,0,11.23,3.29a11.9,11.9,0,0,1,1.88,15.82,11.36,11.36,0,0,1-5.8,3.82A11,11,0,0,1,362,115.48Zm-23.6-7.94h7.51a6.6,6.6,0,0,0,4.32-1.24,4.44,4.44,0,0,0,1.51-3.65A4.55,4.55,0,0,0,350.23,99a6.49,6.49,0,0,0-4.32-1.27H338.4ZM351.31,125a4.63,4.63,0,0,0,1.57-3.78,4.86,4.86,0,0,0-1.64-3.89,6.73,6.73,0,0,0-4.53-1.41H338.4v10.39h8.45A6.82,6.82,0,0,0,351.31,125Z"/></g></g></svg>